<?xml version="1.0" encoding="utf-8"?>
<!-- Generator: Adobe Illustrator 19.0.0, SVG Export Plug-In . SVG Version: 6.00 Build 0)  -->
<svg version="1.1" id="レイヤー_1" xmlns="http://www.w3.org/2000/svg" xmlns:xlink="http://www.w3.org/1999/xlink" x="0px"
	 y="0px" viewBox="0 0 71.7 73.5" style="enable-background:new 0 0 71.7 73.5;" xml:space="preserve">
<style type="text/css">
	.st0{fill:#00B603;}
</style>
<g>
	<path class="st0" d="M71.7,13.5c0,1.3,0,2.5,0,3c-5.8,1.1-11.6,2.6-17.4,3.1c-5.9,0.5-7.5,2.4-5.5,8.2c1,2.8,2.4,5.7,2.5,8.6
		c0.5,14.7-4.7,31.2-22.8,36c-0.9,0.3-1.8,0.8-2.7,1.2c-4.3,0-8.7,0-13,0c-5.5-2.5-9.5-6.5-12-12c0-2.1-1.6-6.9,0-13
		c2.2-5.3,4.5-10.7,6.7-16c5.2-13,13.5-17.4,27.2-14.5c2.8,0.6,5.5,1.7,8.3,2.5c0.3-0.3,0.6-0.7,0.8-1c-1.2-1.3-2.1-3.1-3.6-3.8
		c-2.7-1.3-5.6-2.1-8.5-2.6c-8.1-1.5-9.7-4.4-5.9-11.5c3-2.3,6.7-1.7,10,0c3.8,4,7.7,8,11.8,12.2c0.3-0.2,1-0.5,1.7-1
		C59.6,5.5,62.3,5.6,71.7,13.5z M28.7,61.4c1.1,3.4,3,4.9,7.2,4.1c4.6-0.9,5.3-3.7,5.9-7.3c0.8-5.1,1.9-10.1,2.9-15.2
		c0.5-2.6,1-5.1-2.9-5.4c-3.3-0.3-6.4-0.7-6.9,4c-0.4,3.9-1.4,7.7-2,11.2c-2.5-2.3-4.7-5.9-6.8-5.8c-2.5,0.1-4.8,3.5-7.4,5.7
		c-0.3-3.7-0.4-7.7-0.8-11.6c-0.5-4.8-4.3-3-7-3.1c-2.9-0.1-3.8,1.4-3.2,4.1c1,4.9,1.8,9.8,2.7,14.7c1.7,9,1.9,9.3,10.9,8.1
		C23.6,64.6,25.8,62.8,28.7,61.4z M24,25c0.1,0.6,0.1,1.2,0.2,1.8c-2.2,0.6-4.5,0.9-6.5,1.8c-1.5,0.7-2.5,2.3-3.7,3.5
		c1.4,1.2,2.7,3.3,4.2,3.5c3.3,0.3,6.7-0.3,10.4-0.6c-0.4-4.8,1.8-10-4-12.1c-3.1-1.1-6.4-0.8-9.9,2.6C18.8,25.2,21.4,25.1,24,25z
		 M38.5,21.9c-0.5,0-1,0-1.6,0c0,4.3,0,8.6,0,12.9c0.5,0,1,0,1.6,0C38.5,30.5,38.5,26.2,38.5,21.9z M33.8,21.9c-0.6,0-1.3,0-1.9,0
		c-1.1,4.3-1.2,8.6,0.3,12.7c0.5,0,1.1,0,1.6,0C33.8,30.4,33.8,26.2,33.8,21.9z"/>
	<path class="st0" d="M25.1,32.2c-0.2-0.9-0.4-1.8-0.6-2.7c-2.3,0.5-4.5,1.1-6.8,1.6c0.2,0.8,0.4,1.6,0.5,2.5
		C20.5,33.1,22.8,32.7,25.1,32.2z"/>
	<path class="st0" d="M25.1,32.2c-2.3,0.4-4.6,0.9-6.9,1.3c-0.2-0.8-0.4-1.6-0.5-2.5c2.3-0.5,4.5-1.1,6.8-1.6
		C24.6,30.4,24.9,31.3,25.1,32.2z"/>
</g>
</svg>
